<svg id="Layer_1" enable-background="new 0 0 512 512" height="512" viewBox="0 0 512 512" width="512" xmlns="http://www.w3.org/2000/svg"><path d="m477.833 290.1v-226.788c0-2.122-.843-4.156-2.343-5.657l-55.311-55.312c-1.5-1.5-3.535-2.343-5.657-2.343h-286.079c-4.418 0-8 3.582-8 8v45.526h-45.527c-4.418 0-8 3.582-8 8v109.474h-24.009c-23.659 0-42.907 19.248-42.907 42.907v255.186c0 23.659 19.248 42.907 42.907 42.907h336.07.022c73.336 0 133-59.663 133-133 .001-34.147-12.938-65.325-34.166-88.9zm-55.311-262.787 27.998 27.998h-27.998zm-286.079-11.313h270.079v47.312c0 4.418 3.582 8 8 8h47.312v203.713c-11.185-8.929-23.833-16.097-37.527-21.073v-137.113c0-2.122-.843-4.156-2.343-5.657l-55.312-55.313c-1.5-1.5-3.535-2.343-5.657-2.343h-224.552zm232.552 64.84 27.998 27.999h-27.998zm-286.079-11.314h270.079v47.313c0 4.418 3.582 8 8 8h47.312v124.421c-9.433-2.13-19.24-3.26-29.307-3.26-11.179 0-22.037 1.393-32.417 4.003h-60.954v-36.096c0-2.542-.235-5.029-.661-7.45h61.671c4.418 0 8-3.582 8-8s-3.582-8-8-8h-68.012c-7.67-11.705-20.896-19.457-35.905-19.457h-159.806zm202.713 196.477h23.303c-8.444 5.255-16.259 11.427-23.303 18.38zm-242.722 229.997c-14.837 0-26.907-12.07-26.907-26.907v-255.186c0-14.837 12.07-26.907 26.907-26.907h199.815c10.475 0 19.565 6.021 24.008 14.78.091.198.186.394.292.583 1.67 3.501 2.607 7.415 2.607 11.545v89.508c-14.889 21.478-23.629 47.527-23.629 75.584s8.74 54.106 23.63 75.585v14.508c0 14.837-12.07 26.907-26.907 26.907zm233.203 0c5.097-6.313 8.449-14.089 9.302-22.594 8.971 8.894 19.196 16.525 30.387 22.594zm102.89 0c-64.514 0-117-52.486-117-117s52.486-117 117-117 117 52.486 117 117-52.486 117-117 117zm39.565-101.278c-.003 0-.006 0-.01 0-17.444.007-31.63 14.203-31.624 31.647.003 8.45 3.296 16.394 9.273 22.367 5.975 5.971 13.915 9.258 22.361 9.258h.012c17.444-.007 31.631-14.203 31.625-31.647-.005-17.441-14.197-31.625-31.637-31.625zm.007 47.272c-.002 0-.004 0-.006 0-4.174 0-8.099-1.625-11.052-4.575-2.954-2.952-4.582-6.878-4.583-11.056-.003-8.622 7.008-15.639 15.63-15.642h.004c8.619 0 15.634 7.012 15.638 15.631.003 8.622-7.009 15.639-15.631 15.642zm-79.129-78.716c8.451-.003 16.394-3.296 22.368-9.273 5.973-5.977 9.261-13.923 9.258-22.373-.006-17.441-14.196-31.625-31.635-31.625-.003 0-.009 0-.012 0-8.451.003-16.395 3.296-22.368 9.273-5.973 5.978-9.26 13.923-9.257 22.374.003 8.45 3.296 16.394 9.273 22.366 5.975 5.971 13.915 9.258 22.361 9.258zm-15.646-31.63c-.001-4.177 1.623-8.104 4.575-11.059s6.878-4.582 11.055-4.583h.006c8.619 0 15.632 7.011 15.636 15.631.001 4.177-1.624 8.104-4.576 11.058s-6.878 4.582-11.055 4.583c-.002 0-.004 0-.006 0-4.175 0-8.1-1.625-11.052-4.575-2.954-2.952-4.582-6.878-4.583-11.055zm106.712-10.099-88.583 123.37c-1.563 2.176-4.016 3.335-6.505 3.335-1.616 0-3.247-.488-4.659-1.503-3.589-2.576-4.409-7.575-1.833-11.164l88.583-123.37c2.578-3.588 7.576-4.409 11.165-1.832 3.588 2.576 4.408 7.575 1.832 11.164zm-140.88-174.639h-145.046c-4.418 0-8-3.582-8-8s3.582-8 8-8h145.046c4.418 0 8 3.582 8 8s-3.581 8-8 8zm-42.518 90.219c0-8.836-7.188-16.024-16.024-16.024h-176.544c-8.836 0-16.024 7.188-16.024 16.024v31.497c0 8.836 7.188 16.024 16.024 16.024h176.544c8.836 0 16.024-7.188 16.024-16.024zm-16.024 31.521-176.568-.024.019-31.521h.006l176.568.024zm-139.178 38.218h-29.993c-8.836 0-16.024 7.188-16.024 16.024v10.433c0 8.836 7.188 16.024 16.024 16.024h29.993c8.835 0 16.024-7.188 16.024-16.024v-10.433c0-8.835-7.189-16.024-16.024-16.024zm0 26.482-30.018-.024.019-10.457h.006l30.017.024zm65.902-26.482h-29.993c-8.836 0-16.024 7.188-16.024 16.024v10.433c0 8.836 7.188 16.024 16.024 16.024h29.993c8.836 0 16.025-7.188 16.025-16.024v-10.433c0-8.835-7.189-16.024-16.025-16.024zm0 26.482-30.017-.024.019-10.457h.006l30.018.024zm65.903-26.482h-29.993c-8.836 0-16.024 7.188-16.024 16.024v10.433c0 8.836 7.188 16.024 16.024 16.024h29.993c8.836 0 16.025-7.188 16.025-16.024v-10.433c0-8.835-7.189-16.024-16.025-16.024zm0 26.482-30.017-.024.019-10.457h.006l30.018.024zm-131.805 29.792h-29.993c-8.836 0-16.024 7.188-16.024 16.024v10.433c0 8.836 7.188 16.024 16.024 16.024h29.993c8.835 0 16.024-7.188 16.024-16.024v-10.433c0-8.836-7.189-16.024-16.024-16.024zm0 26.481-30.018-.024.019-10.457h.006l30.017.024zm65.902-26.481h-29.993c-8.836 0-16.024 7.188-16.024 16.024v10.433c0 8.836 7.188 16.024 16.024 16.024h29.993c8.836 0 16.025-7.188 16.025-16.024v-10.433c0-8.836-7.189-16.024-16.025-16.024zm0 26.481-30.017-.024.019-10.457h.006l30.018.024zm65.903-26.481h-29.993c-8.836 0-16.024 7.188-16.024 16.024v10.433c0 8.836 7.188 16.024 16.024 16.024h29.993c8.836 0 16.025-7.188 16.025-16.024v-10.433c0-8.836-7.189-16.024-16.025-16.024zm0 26.481-30.017-.024.019-10.457h.006l30.018.024zm-131.805 29.792h-29.993c-8.836 0-16.024 7.188-16.024 16.024v10.433c0 8.836 7.188 16.024 16.024 16.024h29.993c8.835 0 16.024-7.188 16.024-16.024v-10.433c0-8.835-7.189-16.024-16.024-16.024zm0 26.481-30.018-.024.019-10.457h.006l30.017.024zm65.902-26.481h-29.993c-8.836 0-16.024 7.188-16.024 16.024v10.433c0 8.836 7.188 16.024 16.024 16.024h29.993c8.836 0 16.025-7.188 16.025-16.024v-10.433c0-8.835-7.189-16.024-16.025-16.024zm0 26.481-30.017-.024.019-10.457h.006l30.018.024zm65.903-26.481h-29.993c-8.836 0-16.024 7.188-16.024 16.024v10.433c0 8.836 7.188 16.024 16.024 16.024h29.993c8.836 0 16.025-7.188 16.025-16.024v-10.433c0-8.835-7.189-16.024-16.025-16.024zm0 26.481-30.017-.024.019-10.457h.006l30.018.024z"/></svg>