<svg id="Layer_1" enable-background="new 0 0 512 512" height="512" viewBox="0 0 512 512" width="512" xmlns="http://www.w3.org/2000/svg"><path d="m262.411 2.465c-1.509-1.575-3.596-2.466-5.776-2.466h-248.635c-4.418 0-8 3.582-8 8v496.002c0 4.418 3.582 8 8 8h346.979c4.418 0 8-3.582 8-8v-393.355c0-2.063-.797-4.045-2.224-5.534zm-2.079 20.956 75.903 79.224h-75.903zm-244.332 472.58v-480.002h228.332v94.646c0 4.418 3.582 8 8 8h94.646v377.355h-330.978zm491.122-139.298v-168.937c.938-.398 1.801-.971 2.535-1.705 1.5-1.501 2.343-3.535 2.343-5.657l-.001-120.431c0-4.418-3.582-8-8-8h-7.239l-.001-32.413c0-10.786-8.775-19.56-19.559-19.56l-17.126.001c-10.784 0-19.559 8.774-19.559 19.559v32.413h-7.24-.001-17.213c-12.907 0-23.408 10.501-23.408 23.409v137.181c0 4.418 3.582 8 8 8s8-3.582 8-8v-137.181c0-4.086 3.323-7.409 7.408-7.409h9.213l.001 112.431c0 3.31 2.011 6.151 4.878 7.367v168.933c-2.867 1.216-4.878 4.057-4.878 7.367v85.068c0 2.122.843 4.156 2.343 5.657l33.02 33.02v16.186c0 4.418 3.582 8 8 8s8-3.582 8-8v-16.186l33.02-33.02c1.5-1.501 2.343-3.535 2.343-5.657v-85.069c-.001-3.31-2.012-6.151-4.879-7.367zm-30.484-.633v-167.667h14.484v167.667zm-30.485 0v-167.667h14.484v167.667zm49.846-288.097.001 104.43h-54.725l-.001-104.431h54.725zm-39.483-48.413c0-1.929 1.63-3.559 3.559-3.559l17.125-.001c1.929 0 3.559 1.63 3.559 3.56l.001 32.413h-24.244zm39.484 426.265-27.362 27.362-27.362-27.362v-73.755h54.724zm-321.33-327.18h-117.601c-4.418 0-8-3.582-8-8s3.582-8 8-8h117.601c4.418 0 8 3.582 8 8s-3.582 8-8 8zm-125.601-53.668c0-4.418 3.582-8 8-8h117.601c4.418 0 8 3.582 8 8s-3.582 8-8 8h-117.601c-4.418 0-8-3.582-8-8zm132.42 126.468c-66.444 0-120.5 54.056-120.5 120.5s54.056 120.501 120.5 120.501 120.5-54.057 120.5-120.501-54.055-120.5-120.5-120.5zm0 225.001c-57.621 0-104.5-46.879-104.5-104.501 0-57.621 46.879-104.5 104.5-104.5s104.5 46.879 104.5 104.5c0 57.622-46.879 104.501-104.5 104.501zm33.775-92.231c-15.541 0-28.185 12.644-28.185 28.185s12.644 28.185 28.185 28.185 28.185-12.644 28.185-28.185-12.644-28.185-28.185-28.185zm0 40.369c-6.719 0-12.185-5.466-12.185-12.185s5.466-12.185 12.185-12.185 12.185 5.466 12.185 12.185-5.467 12.185-12.185 12.185zm15.265-106.702-85.015 118.336c-1.563 2.175-4.016 3.333-6.504 3.333-1.616 0-3.248-.488-4.661-1.504-3.588-2.578-4.407-7.576-1.829-11.165l85.015-118.336c2.577-3.587 7.576-4.408 11.165-1.829 3.588 2.578 4.407 7.576 1.829 11.165zm-54.631 13.61c0-15.541-12.644-28.185-28.185-28.185s-28.185 12.644-28.185 28.185c0 15.54 12.644 28.184 28.185 28.184s28.185-12.644 28.185-28.184zm-40.369 0c0-6.719 5.466-12.185 12.185-12.185s12.185 5.466 12.185 12.185c0 6.718-5.466 12.184-12.185 12.184s-12.185-5.466-12.185-12.184z"/></svg>