<svg id="&#x421;&#x43B;&#x43E;&#x439;_1" viewBox="0 0 128 128" xmlns="http://www.w3.org/2000/svg"><path d="m8.6 100.51h44.78a2 2 0 1 0 0-4h-44.78a8.54 8.54 0 0 0 -4.6 1.34v-93.85h74.38v68.5a2 2 0 0 0 4 0v-70.5a2 2 0 0 0 -2-2h-78.38a2 2 0 0 0 -2 2v103.11a8.61 8.61 0 0 0 8.6 8.6h44.78a2 2 0 1 0 0-4h-44.78a4.6 4.6 0 1 1 0-9.21z"/><path d="m23.29 70a2 2 0 0 0 1.41-.59l35.8-35.8a2 2 0 0 0 -2.83-2.83l-35.8 35.8a2 2 0 0 0 1.42 3.42z"/><path d="m28.66 46.05a8.47 8.47 0 1 0 -6-2.48 8.42 8.42 0 0 0 6 2.48zm-3.16-11.64a4.47 4.47 0 1 1 0 6.33 4.46 4.46 0 0 1 0-6.33z"/><path d="m53.71 71.1a8.47 8.47 0 1 0 -6-2.48 8.42 8.42 0 0 0 6 2.48zm-3.16-11.64a4.47 4.47 0 1 1 0 6.33 4.46 4.46 0 0 1 0-6.33z"/><path d="m128 56.68c0-5.77-8.82-10.12-20.51-10.12s-20.49 4.34-20.49 10.12v.43a2 2 0 0 0 0 .41v16.08a2 2 0 0 0 4 0v-.69c3.67 2.45 9.58 4 16.51 4s12.84-1.54 16.51-4v4.09c0 2.5-6.43 6.12-16.51 6.12h-.88a17.3 17.3 0 0 1 -3-.15 2 2 0 1 0 -.52 4 19.6 19.6 0 0 0 2.89.19h1.47c6.93 0 12.84-1.54 16.51-4v4.09c0 2.5-6.43 6.12-16.51 6.12h-.88a17.45 17.45 0 0 1 -3-.15 2 2 0 1 0 -.52 4 19.6 19.6 0 0 0 2.89.19h1.47c6.93 0 12.84-1.54 16.51-4v4.09c0 2.5-6.43 6.12-16.51 6.12h-.88a17.35 17.35 0 0 1 -3-.15 2 2 0 1 0 -.52 4 19.6 19.6 0 0 0 2.89.19h1.47c6.93 0 12.84-1.54 16.51-4v4.09c0 2.5-6.43 6.12-16.51 6.12h-.88a17.63 17.63 0 0 1 -3-.15 2 2 0 1 0 -.52 4 19.67 19.67 0 0 0 2.9.19h1.46c11.69 0 20.51-4.35 20.51-10.12v-50.28a2 2 0 0 0 0-.41c.14-.1.14-.28.14-.42zm-20.51-6.12c10.08 0 16.51 3.63 16.51 6.12s-6.43 6.12-16.51 6.12-16.49-3.63-16.49-6.12 6.42-6.13 16.49-6.13zm0 22.35c-10.07-.01-16.49-3.64-16.49-6.14v-4c3.67 2.45 9.58 4 16.51 4s12.84-1.54 16.51-4v4c-.02 2.5-6.45 6.13-16.53 6.13z"/><path d="m78.34 77.21c-11.69 0-20.51 4.35-20.51 10.12v.43a2 2 0 0 0 0 .41v29.71c0 5.77 8.82 10.12 20.51 10.12s20.51-4.35 20.51-10.12v-29.71a2 2 0 0 0 0-.41c0-.14 0-.29 0-.43 0-5.77-8.85-10.12-20.51-10.12zm16.51 30.45c0 2.5-6.43 6.12-16.51 6.12s-16.51-3.63-16.51-6.12v-4.09c3.67 2.45 9.58 4 16.51 4s12.84-1.54 16.51-4zm0-10.22c0 2.5-6.43 6.12-16.51 6.12s-16.51-3.63-16.51-6.12v-4c3.67 2.45 9.58 4 16.51 4s12.84-1.54 16.51-4zm-16.51-16.23c10.08 0 16.51 3.63 16.51 6.12s-6.43 6.12-16.51 6.12-16.51-3.63-16.51-6.12 6.43-6.12 16.51-6.12zm0 42.79c-10.08 0-16.51-3.63-16.51-6.12v-4.09c3.67 2.45 9.58 4 16.51 4s12.84-1.54 16.51-4v4.09c0 2.49-6.43 6.12-16.51 6.12z"/></svg>