<svg width="152" height="34" viewBox="0 0 152 34" fill="none" xmlns="http://www.w3.org/2000/svg">
<path d="M43.2526 13.2467C43.2526 10.1148 45.7783 7.99316 49.5416 7.99316C53.0271 7.99316 55.275 9.93796 55.477 13.0951H52.9766C52.8503 11.2766 51.5622 10.2158 49.5163 10.2158C47.2179 10.2158 45.7278 11.3776 45.7278 13.1709C45.7278 14.6358 46.5613 15.5198 48.2787 15.9239L51.2843 16.6311C54.2647 17.3131 55.7801 18.9295 55.7801 21.5057C55.7801 24.7892 53.2291 26.8855 49.3395 26.8855C45.6267 26.8855 43.1515 24.9407 43 21.8088H45.5257C45.5762 23.5516 47.0411 24.6629 49.3395 24.6629C51.7642 24.6629 53.3049 23.5263 53.3049 21.7078C53.3049 20.2681 52.5219 19.3589 50.7792 18.9548L47.7736 18.2728C44.7933 17.5909 43.2526 15.8734 43.2526 13.2467Z" fill="#1D1D1D"/>
<path d="M61.9719 26.5824H59.5977V16.227H57.173V14.2317H59.5977V10.3673H61.9719V14.2317H64.3965V16.227H61.9719V26.5824Z" fill="#1D1D1D"/>
<path d="M73.5992 14.1307V16.3028H72.5384C70.2905 16.3028 68.9014 17.6667 68.9014 20.0408V26.5824H66.5272V14.2569H68.7499L68.9014 16.126C69.4065 14.8379 70.6441 13.9791 72.3364 13.9791C72.7657 13.9791 73.1193 14.0296 73.5992 14.1307Z" fill="#1D1D1D"/>
<path d="M84.3629 14.2317H86.7118V26.5824H84.5902L84.3377 24.7134C83.6305 26.0015 81.9887 26.8855 80.1702 26.8855C77.2909 26.8855 75.6745 24.9407 75.6745 21.9099V14.2317H78.0486V21.1269C78.0486 23.7789 79.1852 24.7892 81.0037 24.7892C83.1758 24.7892 84.3629 23.4 84.3629 20.748V14.2317Z" fill="#1D1D1D"/>
<path d="M89.1016 20.4197C89.1016 16.5553 91.5515 13.8781 95.1633 13.8781C98.2699 13.8781 100.442 15.6461 100.871 18.3991H98.4972C98.0931 16.8332 96.8303 15.9997 95.2391 15.9997C92.9912 15.9997 91.4505 17.7172 91.4505 20.3944C91.4505 23.0464 92.8902 24.7639 95.138 24.7639C96.8303 24.7639 98.0931 23.8799 98.5225 22.415H100.897C100.417 25.0923 98.1184 26.8855 95.138 26.8855C91.501 26.8855 89.1016 24.3093 89.1016 20.4197Z" fill="#1D1D1D"/>
<path d="M106.887 26.5824H104.513V16.227H102.088V14.2317H104.513V10.3673H106.887V14.2317H109.312V16.227H106.887V26.5824Z" fill="#1D1D1D"/>
<path d="M119.979 14.2317H122.328V26.5824H120.207L119.954 24.7134C119.247 26.0015 117.605 26.8855 115.787 26.8855C112.907 26.8855 111.291 24.9407 111.291 21.9099V14.2317H113.665V21.1269C113.665 23.7789 114.802 24.7892 116.62 24.7892C118.792 24.7892 119.979 23.4 119.979 20.748V14.2317Z" fill="#1D1D1D"/>
<path d="M132.845 14.1307V16.3028H131.784C129.536 16.3028 128.147 17.6667 128.147 20.0408V26.5824H125.773V14.2569H127.996L128.147 16.126C128.652 14.8379 129.89 13.9791 131.582 13.9791C132.012 13.9791 132.365 14.0296 132.845 14.1307Z" fill="#1D1D1D"/>
<path d="M138.19 26.8855C135.538 26.8855 133.972 25.3953 133.972 23.1475C133.972 20.8743 135.665 19.4599 138.569 19.2326L142.459 18.9295V18.5759C142.459 16.5048 141.221 15.7724 139.554 15.7724C137.559 15.7724 136.422 16.6564 136.422 18.1465H134.351C134.351 15.5703 136.473 13.8781 139.655 13.8781C142.711 13.8781 144.782 15.4945 144.782 18.8285V26.5824H142.762L142.509 24.5871C141.878 26.0015 140.186 26.8855 138.19 26.8855ZM138.872 25.0417C141.12 25.0417 142.484 23.5768 142.484 21.2532V20.5965L139.327 20.8491C137.23 21.0511 136.372 21.8593 136.372 23.0717C136.372 24.3851 137.331 25.0417 138.872 25.0417Z" fill="#1D1D1D"/>
<path d="M149.838 26.8855C148.853 26.8855 148.02 26.0773 148.02 25.1175C148.02 24.1325 148.853 23.3243 149.838 23.3243C150.798 23.3243 151.632 24.1325 151.632 25.1175C151.632 26.0773 150.798 26.8855 149.838 26.8855Z" fill="#1D1D1D"/>
<path d="M20.6864 1.37393L17.444 0.505127L14.7116 10.7026L12.2447 1.49626L9.00225 2.36506L11.6675 12.3119L5.02892 5.6733L2.65531 8.04691L9.93704 15.3287L0.868803 12.8989L0 16.1412L9.90819 18.7961C9.79475 18.3069 9.73474 17.797 9.73474 17.2732C9.73474 13.5654 12.7405 10.5596 16.4483 10.5596C20.1562 10.5596 23.162 13.5654 23.162 17.2732C23.162 17.7937 23.1027 18.3003 22.9906 18.7867L31.9954 21.1995L32.8641 17.9571L22.9165 15.2917L31.9854 12.8617L31.1165 9.61929L21.1694 12.2846L27.808 5.64604L25.4343 3.27243L18.2536 10.4532L20.6864 1.37393Z" fill="#CCCCCC"/>
<path d="M22.9818 18.8246C22.7038 19.9999 22.1169 21.0557 21.3116 21.9016L27.8352 28.4252L30.2088 26.0516L22.9818 18.8246Z" fill="#CCCCCC"/>
<path d="M21.2457 21.9697C20.4307 22.8021 19.4008 23.4233 18.2458 23.7434L20.6196 32.6025L23.862 31.7336L21.2457 21.9697Z" fill="#CCCCCC"/>
<path d="M18.1246 23.776C17.5888 23.9137 17.0271 23.987 16.4483 23.987C15.8282 23.987 15.2277 23.9029 14.6576 23.7455L12.2817 32.6126L15.5241 33.4814L18.1246 23.776Z" fill="#CCCCCC"/>
<path d="M14.543 23.7126C13.4057 23.3766 12.3941 22.7475 11.5957 21.9127L5.05615 28.4523L7.42977 30.8259L14.543 23.7126Z" fill="#CCCCCC"/>
<path d="M11.5412 21.855C10.7566 21.0149 10.185 19.9732 9.91295 18.816L0.878845 21.2367L1.74764 24.4791L11.5412 21.855Z" fill="#CCCCCC"/>
</svg>
