<svg id="Layer_1" height="512" viewBox="0 0 64 64" width="512" xmlns="http://www.w3.org/2000/svg" data-name="Layer 1"><path d="m14 59a1 1 0 0 1 -1-1v-52a4 4 0 1 0 -4 4h2a1 1 0 0 1 0 2h-2a6 6 0 1 1 6-6v52a1 1 0 0 1 -1 1z"/><path d="m48 16a1 1 0 0 1 -1-1v-9a4 4 0 0 0 -4-4h-34a1 1 0 0 1 0-2h34a6.006 6.006 0 0 1 6 6v9a1 1 0 0 1 -1 1z"/><path d="m49 64h-30a1 1 0 0 1 0-2h30a1 1 0 0 1 0 2z"/><path d="m49 64a1 1 0 0 1 0-2 4 4 0 0 0 0-8h-25.531a6 6 0 1 1 -10.469 4 1 1 0 0 1 2 0 4 4 0 1 0 4-4 1 1 0 0 1 0-2h30a6 6 0 0 1 0 12z"/><path d="m22 28h-4a1 1 0 0 1 0-2h4a1 1 0 0 1 0 2z"/><path d="m33 28h-8a1 1 0 0 1 0-2h8a1 1 0 0 1 0 2z"/><path d="m33 32h-15a1 1 0 0 1 0-2h15a1 1 0 0 1 0 2z"/><path d="m24 36h-6a1 1 0 0 1 0-2h6a1 1 0 0 1 0 2z"/><path d="m33 36h-6a1 1 0 0 1 0-2h6a1 1 0 0 1 0 2z"/><path d="m20 40h-2a1 1 0 0 1 0-2h2a1 1 0 0 1 0 2z"/><path d="m28 40h-5a1 1 0 0 1 0-2h5a1 1 0 0 1 0 2z"/><path d="m58 51h-20a3 3 0 0 1 -3-3v-28a3 3 0 0 1 3-3h20a3 3 0 0 1 3 3v28a3 3 0 0 1 -3 3zm-20-32a1 1 0 0 0 -1 1v28a1 1 0 0 0 1 1h20a1 1 0 0 0 1-1v-28a1 1 0 0 0 -1-1z"/><path d="m56 30h-16a1 1 0 0 1 -1-1v-6a1 1 0 0 1 1-1h16a1 1 0 0 1 1 1v6a1 1 0 0 1 -1 1zm-15-2h14v-4h-14z"/><path d="m42 35h-2a1 1 0 0 1 0-2h2a1 1 0 0 1 0 2z"/><path d="m49 35h-2a1 1 0 0 1 0-2h2a1 1 0 0 1 0 2z"/><path d="m56 35h-2a1 1 0 0 1 0-2h2a1 1 0 0 1 0 2z"/><path d="m42 40h-2a1 1 0 0 1 0-2h2a1 1 0 0 1 0 2z"/><path d="m49 40h-2a1 1 0 0 1 0-2h2a1 1 0 0 1 0 2z"/><path d="m56 40h-2a1 1 0 0 1 0-2h2a1 1 0 0 1 0 2z"/><path d="m42 45h-2a1 1 0 0 1 0-2h2a1 1 0 0 1 0 2z"/><path d="m49 45h-2a1 1 0 0 1 0-2h2a1 1 0 0 1 0 2z"/><path d="m56 45h-2a1 1 0 0 1 0-2h2a1 1 0 0 1 0 2z"/><path d="m25 50h-6a1 1 0 0 1 0-2h6a1 1 0 0 1 0 2z"/><path d="m19 24a1 1 0 0 1 -.707-1.707l12-12a1 1 0 0 1 1.414 1.414l-12 12a1 1 0 0 1 -.707.293z"/><path d="m21 16a3 3 0 1 1 3-3 3 3 0 0 1 -3 3zm0-4a1 1 0 1 0 1 1 1 1 0 0 0 -1-1z"/><path d="m29 24a3 3 0 1 1 3-3 3 3 0 0 1 -3 3zm0-4a1 1 0 1 0 1 1 1 1 0 0 0 -1-1z"/></svg>