<svg id="Layer_1" viewBox="0 0 512 512" xmlns="http://www.w3.org/2000/svg" data-name="Layer 1"><path d="m256.037 397.172h-14.56a6.387 6.387 0 1 0 0 12.773h14.56a6.387 6.387 0 1 0 0-12.773zm-161.391 0h-14.555a6.387 6.387 0 1 0 0 12.773h14.555a6.387 6.387 0 1 0 0-12.773zm120.354 6.384a46.939 46.939 0 1 0 -46.936 46.944 46.99 46.99 0 0 0 46.936-46.944zm12.773 0a59.714 59.714 0 1 1 -59.711-59.71 59.779 59.779 0 0 1 59.711 59.71zm-59.709-18.356c-1.195 0-7.136.282-7.136 5.92 0 3.659.624 4.448 8.475 6.159 6.944 1.515 18.571 4.053 18.571 18.715 0 9.6-6.123 15.617-13.526 17.786v2.2a6.387 6.387 0 1 1 -12.773 0v-2.213a20.036 20.036 0 0 1 -6.929-3.574 17.862 17.862 0 0 1 -6.6-14.2 6.389 6.389 0 0 1 12.778 0c0 5.637 5.941 5.92 7.136 5.92s7.135-.283 7.135-5.92c0-3.712-.633-4.511-8.522-6.234-6.927-1.51-18.527-4.044-18.527-18.64 0-9.6 6.121-15.617 13.525-17.786v-2.2a6.387 6.387 0 1 1 12.773 0v2.2c7.4 2.169 13.526 8.186 13.526 17.786a6.388 6.388 0 0 1 -12.775 0 5.13 5.13 0 0 0 -1.855-4.266 8.51 8.51 0 0 0 -5.28-1.654zm275.776-111.514h-119.84v35.562h119.84zm12.777-6.391v48.346a6.389 6.389 0 0 1 -6.388 6.386h-132.619a6.389 6.389 0 0 1 -6.389-6.386v-48.341a6.387 6.387 0 0 1 6.389-6.382h132.619a6.387 6.387 0 0 1 6.388 6.382zm-12.777 129.659h-11.921v53.036h11.921zm12.777-6.393v65.818a6.392 6.392 0 0 1 -6.388 6.388h-24.7a6.389 6.389 0 0 1 -6.389-6.388v-65.818a6.387 6.387 0 0 1 6.389-6.386h24.7a6.389 6.389 0 0 1 6.388 6.386zm-66.74 52.057h-11.92v9.836h11.92zm12.778-6.383v22.606a6.387 6.387 0 0 1 -6.389 6.386h-24.7a6.386 6.386 0 0 1 -6.385-6.386v-22.606a6.387 6.387 0 0 1 6.385-6.39h24.7a6.387 6.387 0 0 1 6.389 6.39zm-66.736 6.383h-11.919v9.836h11.92v-9.836zm12.78-6.383v22.606a6.387 6.387 0 0 1 -6.391 6.386h-24.7a6.389 6.389 0 0 1 -6.389-6.386v-22.606a6.39 6.39 0 0 1 6.389-6.39h24.7a6.388 6.388 0 0 1 6.391 6.39zm41.178-39.281h-11.92v9.828h11.92zm12.778-6.393v22.612a6.386 6.386 0 0 1 -6.389 6.388h-24.7a6.385 6.385 0 0 1 -6.385-6.388v-22.612a6.386 6.386 0 0 1 6.385-6.386h24.7a6.387 6.387 0 0 1 6.389 6.386zm-66.736 6.393h-11.919v9.828h11.92v-9.828zm12.78-6.393v22.612a6.386 6.386 0 0 1 -6.391 6.388h-24.7a6.388 6.388 0 0 1 -6.389-6.388v-22.612a6.39 6.39 0 0 1 6.389-6.386h24.7a6.388 6.388 0 0 1 6.391 6.386zm95.141-37.425h-11.921v9.834h11.921zm12.777-6.385v22.609a6.388 6.388 0 0 1 -6.388 6.383h-24.7a6.385 6.385 0 0 1 -6.389-6.383v-22.609a6.39 6.39 0 0 1 6.389-6.394h24.7a6.393 6.393 0 0 1 6.388 6.394zm-66.74 6.385h-11.92v9.834h11.92zm12.778-6.385v22.609a6.386 6.386 0 0 1 -6.389 6.383h-24.7a6.385 6.385 0 0 1 -6.385-6.383v-22.609a6.39 6.39 0 0 1 6.385-6.394h24.7a6.391 6.391 0 0 1 6.389 6.394zm-66.736 6.385h-11.919v9.834h11.92v-9.834zm12.78-6.385v22.609a6.386 6.386 0 0 1 -6.391 6.383h-24.7a6.388 6.388 0 0 1 -6.389-6.383v-22.609a6.393 6.393 0 0 1 6.389-6.394h24.7a6.391 6.391 0 0 1 6.391 6.394zm122.755-94.782v223.2a8.065 8.065 0 0 1 -8.058 8.054h-159.851a8.065 8.065 0 0 1 -8.057-8.054v-223.2a8.07 8.07 0 0 1 8.057-8.064h159.855a8.069 8.069 0 0 1 8.058 8.064zm-430.914 219.784v-136.393h242.174v136.393zm25.53-149.172v-235.921h30.783a18.459 18.459 0 0 0 18.438-18.435v-39.446h251.321a5.662 5.662 0 0 1 5.659 5.659v196.693h-68.726c-2.817 0-4.815.843-7.443.843h-192.732a6.389 6.389 0 0 0 0 12.777h180.63a20.807 20.807 0 0 0 -1.285 7.218v14.687h-179.345a6.387 6.387 0 1 0 0 12.773h179.344v43.152zm7.163-248.692h23.62a5.671 5.671 0 0 0 5.659-5.664v-29.814zm311.811-12.077v169.319h25.249v-163.657a5.667 5.667 0 0 0 -5.659-5.662zm99.19 190.157v223.2a20.863 20.863 0 0 1 -20.834 20.831h-159.855a20.851 20.851 0 0 1 -18.6-11.467h-250.79a6.4 6.4 0 0 1 -6.389-6.393v-149.166a6.394 6.394 0 0 1 6.389-6.393h19.145v-242.308a6.47 6.47 0 0 1 1.456-4.064c14.63-14.629 33.836-40.994 47.776-57.884a6.37 6.37 0 0 1 4.919-2.325h259.161a18.457 18.457 0 0 1 18.432 18.438v14.6h19.59a18.459 18.459 0 0 1 18.432 18.438v163.655h40.334a20.862 20.862 0 0 1 20.838 20.838zm-312.875-67.4a8.742 8.742 0 1 0 8.743 8.741 8.747 8.747 0 0 0 -8.743-8.741zm0-12.774a21.515 21.515 0 1 0 21.516 21.515 21.539 21.539 0 0 0 -21.516-21.51zm-63.434-33.209a8.742 8.742 0 1 0 8.742-8.737 8.746 8.746 0 0 0 -8.742 8.737zm-12.773 0a21.515 21.515 0 1 0 21.515-21.516 21.539 21.539 0 0 0 -21.515 21.516zm30.348 71.37 48.1-83.3c4.188-7.275-6.875-13.655-11.062-6.383l-48.1 83.3c-4.23 7.308 6.885 13.641 11.067 6.383zm97.375-26.383h112.1a6.39 6.39 0 0 0 0-12.779h-112.1a6.39 6.39 0 0 0 0 12.779zm-6.383-41.067a6.385 6.385 0 0 0 6.383 6.391h112.1a6.39 6.39 0 0 0 0-12.78h-112.1a6.388 6.388 0 0 0 -6.384 6.389z" fill="rgb(0,0,0)" fill-rule="evenodd"/></svg>